<svg xmlns="http://www.w3.org/2000/svg" xmlns:xlink="http://www.w3.org/1999/xlink" width="2000" zoomAndPan="magnify" viewBox="92 562 1380 376" height="545" preserveAspectRatio="xMidYMid meet" version="1.0"><defs><g/><clipPath id="fbf213875c"><path d="M 112.148438 582.476562 L 447.398438 582.476562 L 447.398438 917.726562 L 112.148438 917.726562 Z M 112.148438 582.476562 " clip-rule="nonzero"/></clipPath></defs><g clip-path="url(#fbf213875c)"><path fill="#0482d8" d="M 447.078125 650.847656 C 447.078125 613.085938 416.46875 582.476562 378.707031 582.476562 C 341.136719 582.476562 310.667969 612.792969 310.367188 650.292969 L 255.207031 657.671875 C 248.285156 636.472656 228.390625 621.148438 204.890625 621.148438 C 175.65625 621.148438 151.949219 644.847656 151.949219 674.085938 C 151.949219 697.527344 167.199219 717.375 188.308594 724.339844 L 180.527344 780.996094 C 142.910156 781.171875 112.472656 811.699219 112.472656 849.351562 C 112.472656 887.113281 143.082031 917.726562 180.84375 917.726562 C 218.523438 917.726562 249.0625 887.242188 249.195312 849.601562 L 313.046875 840.777344 C 320.03125 861.851562 339.859375 877.074219 363.277344 877.074219 C 392.511719 877.074219 416.21875 853.371094 416.21875 824.132812 C 416.21875 799.816406 399.800781 779.378906 377.457031 773.171875 L 382.277344 719.039062 C 418.371094 717.167969 447.078125 687.402344 447.078125 650.847656 Z M 310.457031 821.738281 L 246.527344 830.578125 C 240.058594 807.914062 222.222656 790.097656 199.550781 783.644531 L 207.328125 726.910156 C 234.546875 725.660156 256.355469 703.914062 257.6875 676.71875 L 312.933594 669.332031 C 319.617188 693.175781 338.875 711.710938 363.132812 717.367188 L 358.316406 771.4375 C 332.203125 773.867188 311.652344 795.269531 310.457031 821.738281 Z M 310.457031 821.738281 " fill-opacity="1" fill-rule="nonzero"/></g><g fill="#ffffff" fill-opacity="1"><g transform="translate(465.788897, 819.039749)"><g><path d="M 68.421875 2.6875 C 54.242188 2.6875 42.0625 0.367188 31.875 -4.265625 C 21.695312 -8.910156 12.375 -15.957031 3.90625 -25.40625 L 28.828125 -50.09375 C 34.367188 -43.738281 40.519531 -38.8125 47.28125 -35.3125 C 54.039062 -31.8125 61.898438 -30.0625 70.859375 -30.0625 C 79.003906 -30.0625 85.316406 -31.523438 89.796875 -34.453125 C 94.273438 -37.390625 96.515625 -41.460938 96.515625 -46.671875 C 96.515625 -51.398438 95.046875 -55.226562 92.109375 -58.15625 C 89.179688 -61.09375 85.316406 -63.617188 80.515625 -65.734375 C 75.710938 -67.847656 70.414062 -69.882812 64.625 -71.84375 C 58.84375 -73.800781 53.101562 -76.039062 47.40625 -78.5625 C 41.707031 -81.082031 36.453125 -84.253906 31.640625 -88.078125 C 26.835938 -91.910156 22.96875 -96.71875 20.03125 -102.5 C 17.101562 -108.289062 15.640625 -115.582031 15.640625 -124.375 C 15.640625 -134.96875 18.203125 -144.09375 23.328125 -151.75 C 28.460938 -159.40625 35.59375 -165.226562 44.71875 -169.21875 C 53.84375 -173.207031 64.347656 -175.203125 76.234375 -175.203125 C 88.296875 -175.203125 99.332031 -173.082031 109.34375 -168.84375 C 119.363281 -164.613281 127.632812 -158.832031 134.15625 -151.5 L 109.234375 -126.828125 C 104.015625 -132.203125 98.757812 -136.191406 93.46875 -138.796875 C 88.175781 -141.398438 82.1875 -142.703125 75.5 -142.703125 C 68.820312 -142.703125 63.53125 -141.4375 59.625 -138.90625 C 55.71875 -136.382812 53.765625 -132.765625 53.765625 -128.046875 C 53.765625 -123.648438 55.226562 -120.101562 58.15625 -117.40625 C 61.09375 -114.71875 64.960938 -112.394531 69.765625 -110.4375 C 74.566406 -108.488281 79.859375 -106.535156 85.640625 -104.578125 C 91.429688 -102.628906 97.175781 -100.347656 102.875 -97.734375 C 108.570312 -95.128906 113.820312 -91.832031 118.625 -87.84375 C 123.4375 -83.851562 127.304688 -78.800781 130.234375 -72.6875 C 133.171875 -66.582031 134.640625 -59.050781 134.640625 -50.09375 C 134.640625 -33.632812 128.773438 -20.722656 117.046875 -11.359375 C 105.316406 -1.992188 89.109375 2.6875 68.421875 2.6875 Z M 68.421875 2.6875 "/></g></g></g><g fill="#ffffff" fill-opacity="1"><g transform="translate(607.520338, 819.039749)"><g><path d="M 70.375 2.6875 C 58.15625 2.6875 47.117188 -0.0390625 37.265625 -5.5 C 27.410156 -10.957031 19.628906 -18.410156 13.921875 -27.859375 C 8.222656 -37.304688 5.375 -47.894531 5.375 -59.625 C 5.375 -71.351562 8.222656 -81.859375 13.921875 -91.140625 C 19.628906 -100.429688 27.367188 -107.804688 37.140625 -113.265625 C 46.910156 -118.722656 57.988281 -121.453125 70.375 -121.453125 C 82.757812 -121.453125 93.835938 -118.757812 103.609375 -113.375 C 113.378906 -108 121.113281 -100.628906 126.8125 -91.265625 C 132.519531 -81.898438 135.375 -71.351562 135.375 -59.625 C 135.375 -47.894531 132.519531 -37.304688 126.8125 -27.859375 C 121.113281 -18.410156 113.378906 -10.957031 103.609375 -5.5 C 93.835938 -0.0390625 82.757812 2.6875 70.375 2.6875 Z M 70.375 -31.28125 C 75.75 -31.28125 80.472656 -32.457031 84.546875 -34.8125 C 88.617188 -37.175781 91.753906 -40.515625 93.953125 -44.828125 C 96.148438 -49.148438 97.25 -54.082031 97.25 -59.625 C 97.25 -65.164062 96.109375 -70.007812 93.828125 -74.15625 C 91.546875 -78.3125 88.410156 -81.570312 84.421875 -83.9375 C 80.429688 -86.300781 75.75 -87.484375 70.375 -87.484375 C 65.164062 -87.484375 60.523438 -86.300781 56.453125 -83.9375 C 52.378906 -81.570312 49.203125 -78.269531 46.921875 -74.03125 C 44.640625 -69.800781 43.5 -64.914062 43.5 -59.375 C 43.5 -54 44.640625 -49.148438 46.921875 -44.828125 C 49.203125 -40.515625 52.378906 -37.175781 56.453125 -34.8125 C 60.523438 -32.457031 65.164062 -31.28125 70.375 -31.28125 Z M 70.375 -31.28125 "/></g></g></g><g fill="#ffffff" fill-opacity="1"><g transform="translate(748.274333, 819.039749)"><g><path d="M 62.796875 2.4375 C 51.878906 2.4375 42.144531 -0.25 33.59375 -5.625 C 25.039062 -11 18.28125 -18.328125 13.3125 -27.609375 C 8.34375 -36.898438 5.859375 -47.488281 5.859375 -59.375 C 5.859375 -71.269531 8.34375 -81.859375 13.3125 -91.140625 C 18.28125 -100.429688 25.039062 -107.765625 33.59375 -113.140625 C 42.144531 -118.515625 51.878906 -121.203125 62.796875 -121.203125 C 70.785156 -121.203125 77.992188 -119.65625 84.421875 -116.5625 C 90.859375 -113.46875 96.113281 -109.191406 100.1875 -103.734375 C 104.257812 -98.273438 106.539062 -92.039062 107.03125 -85.03125 L 107.03125 -33.71875 C 106.539062 -26.71875 104.300781 -20.488281 100.3125 -15.03125 C 96.320312 -9.570312 91.066406 -5.296875 84.546875 -2.203125 C 78.035156 0.890625 70.785156 2.4375 62.796875 2.4375 Z M 70.375 -31.28125 C 78.351562 -31.28125 84.785156 -33.925781 89.671875 -39.21875 C 94.566406 -44.507812 97.015625 -51.226562 97.015625 -59.375 C 97.015625 -64.914062 95.910156 -69.800781 93.703125 -74.03125 C 91.503906 -78.269531 88.410156 -81.570312 84.421875 -83.9375 C 80.429688 -86.300781 75.832031 -87.484375 70.625 -87.484375 C 65.40625 -87.484375 60.800781 -86.300781 56.8125 -83.9375 C 52.820312 -81.570312 49.644531 -78.269531 47.28125 -74.03125 C 44.914062 -69.800781 43.734375 -64.914062 43.734375 -59.375 C 43.734375 -54 44.875 -49.191406 47.15625 -44.953125 C 49.4375 -40.722656 52.613281 -37.382812 56.6875 -34.9375 C 60.757812 -32.5 65.320312 -31.28125 70.375 -31.28125 Z M 95.546875 0 L 95.546875 -32.015625 L 101.171875 -60.84375 L 95.546875 -89.6875 L 95.546875 -118.765625 L 132.203125 -118.765625 L 132.203125 0 Z M 95.546875 0 "/></g></g></g><g fill="#ffffff" fill-opacity="1"><g transform="translate(893.671278, 819.039749)"><g><path d="M 81.609375 2.4375 C 73.628906 2.4375 66.300781 0.890625 59.625 -2.203125 C 52.945312 -5.296875 47.488281 -9.570312 43.25 -15.03125 C 39.007812 -20.488281 36.566406 -26.71875 35.921875 -33.71875 L 35.921875 -83.8125 C 36.566406 -90.820312 39.007812 -97.175781 43.25 -102.875 C 47.488281 -108.570312 52.945312 -113.050781 59.625 -116.3125 C 66.300781 -119.570312 73.628906 -121.203125 81.609375 -121.203125 C 92.859375 -121.203125 102.835938 -118.515625 111.546875 -113.140625 C 120.265625 -107.765625 127.109375 -100.429688 132.078125 -91.140625 C 137.046875 -81.859375 139.53125 -71.269531 139.53125 -59.375 C 139.53125 -47.488281 137.046875 -36.898438 132.078125 -27.609375 C 127.109375 -18.328125 120.265625 -11 111.546875 -5.625 C 102.835938 -0.25 92.859375 2.4375 81.609375 2.4375 Z M 13.203125 50.09375 L 13.203125 -118.765625 L 50.578125 -118.765625 L 50.578125 -88.21875 L 44.46875 -59.375 L 50.09375 -30.546875 L 50.09375 50.09375 Z M 74.78125 -31.28125 C 80.15625 -31.28125 84.835938 -32.5 88.828125 -34.9375 C 92.816406 -37.382812 95.953125 -40.722656 98.234375 -44.953125 C 100.515625 -49.191406 101.65625 -54 101.65625 -59.375 C 101.65625 -64.914062 100.515625 -69.800781 98.234375 -74.03125 C 95.953125 -78.269531 92.816406 -81.570312 88.828125 -83.9375 C 84.835938 -86.300781 80.234375 -87.484375 75.015625 -87.484375 C 69.804688 -87.484375 65.203125 -86.300781 61.203125 -83.9375 C 57.210938 -81.570312 54.078125 -78.269531 51.796875 -74.03125 C 49.523438 -69.800781 48.390625 -64.914062 48.390625 -59.375 C 48.390625 -54 49.488281 -49.191406 51.6875 -44.953125 C 53.882812 -40.722656 57.019531 -37.382812 61.09375 -34.9375 C 65.164062 -32.5 69.726562 -31.28125 74.78125 -31.28125 Z M 74.78125 -31.28125 "/></g></g></g><g fill="#ffffff" fill-opacity="1"><g transform="translate(1039.068223, 819.039749)"><g><path d="M 81.609375 2.4375 C 73.628906 2.4375 66.300781 0.769531 59.625 -2.5625 C 52.945312 -5.90625 47.488281 -10.382812 43.25 -16 C 39.007812 -21.625 36.566406 -27.9375 35.921875 -34.9375 L 35.921875 -85.03125 C 36.566406 -92.039062 39.007812 -98.273438 43.25 -103.734375 C 47.488281 -109.191406 52.945312 -113.46875 59.625 -116.5625 C 66.300781 -119.65625 73.628906 -121.203125 81.609375 -121.203125 C 92.859375 -121.203125 102.835938 -118.515625 111.546875 -113.140625 C 120.265625 -107.765625 127.109375 -100.429688 132.078125 -91.140625 C 137.046875 -81.859375 139.53125 -71.269531 139.53125 -59.375 C 139.53125 -47.488281 137.046875 -36.898438 132.078125 -27.609375 C 127.109375 -18.328125 120.265625 -11 111.546875 -5.625 C 102.835938 -0.25 92.859375 2.4375 81.609375 2.4375 Z M 13.203125 0 L 13.203125 -177.40625 L 50.578125 -177.40625 L 50.578125 -89.6875 L 44.46875 -60.84375 L 50.09375 -32.015625 L 50.09375 0 Z M 75.015625 -31.28125 C 80.234375 -31.28125 84.835938 -32.5 88.828125 -34.9375 C 92.816406 -37.382812 95.953125 -40.722656 98.234375 -44.953125 C 100.515625 -49.191406 101.65625 -54 101.65625 -59.375 C 101.65625 -64.914062 100.515625 -69.800781 98.234375 -74.03125 C 95.953125 -78.269531 92.816406 -81.570312 88.828125 -83.9375 C 84.835938 -86.300781 80.234375 -87.484375 75.015625 -87.484375 C 69.804688 -87.484375 65.164062 -86.300781 61.09375 -83.9375 C 57.019531 -81.570312 53.882812 -78.269531 51.6875 -74.03125 C 49.488281 -69.800781 48.390625 -64.914062 48.390625 -59.375 C 48.390625 -53.84375 49.523438 -48.957031 51.796875 -44.71875 C 54.078125 -40.476562 57.210938 -37.175781 61.203125 -34.8125 C 65.203125 -32.457031 69.804688 -31.28125 75.015625 -31.28125 Z M 75.015625 -31.28125 "/></g></g></g><g fill="#ffffff" fill-opacity="1"><g transform="translate(1184.465168, 819.039749)"><g><path d="M 70.375 2.6875 C 58.15625 2.6875 47.117188 -0.0390625 37.265625 -5.5 C 27.410156 -10.957031 19.628906 -18.410156 13.921875 -27.859375 C 8.222656 -37.304688 5.375 -47.894531 5.375 -59.625 C 5.375 -71.351562 8.222656 -81.859375 13.921875 -91.140625 C 19.628906 -100.429688 27.367188 -107.804688 37.140625 -113.265625 C 46.910156 -118.722656 57.988281 -121.453125 70.375 -121.453125 C 82.757812 -121.453125 93.835938 -118.757812 103.609375 -113.375 C 113.378906 -108 121.113281 -100.628906 126.8125 -91.265625 C 132.519531 -81.898438 135.375 -71.351562 135.375 -59.625 C 135.375 -47.894531 132.519531 -37.304688 126.8125 -27.859375 C 121.113281 -18.410156 113.378906 -10.957031 103.609375 -5.5 C 93.835938 -0.0390625 82.757812 2.6875 70.375 2.6875 Z M 70.375 -31.28125 C 75.75 -31.28125 80.472656 -32.457031 84.546875 -34.8125 C 88.617188 -37.175781 91.753906 -40.515625 93.953125 -44.828125 C 96.148438 -49.148438 97.25 -54.082031 97.25 -59.625 C 97.25 -65.164062 96.109375 -70.007812 93.828125 -74.15625 C 91.546875 -78.3125 88.410156 -81.570312 84.421875 -83.9375 C 80.429688 -86.300781 75.75 -87.484375 70.375 -87.484375 C 65.164062 -87.484375 60.523438 -86.300781 56.453125 -83.9375 C 52.378906 -81.570312 49.203125 -78.269531 46.921875 -74.03125 C 44.640625 -69.800781 43.5 -64.914062 43.5 -59.375 C 43.5 -54 44.640625 -49.148438 46.921875 -44.828125 C 49.203125 -40.515625 52.378906 -37.175781 56.453125 -34.8125 C 60.523438 -32.457031 65.164062 -31.28125 70.375 -31.28125 Z M 70.375 -31.28125 "/></g></g></g><g fill="#ffffff" fill-opacity="1"><g transform="translate(1322.042456, 819.039749)"><g><path d="M 86.75 0 L 58.15625 -46.1875 L 50.09375 -51.3125 L 3.421875 -118.765625 L 47.15625 -118.765625 L 73.796875 -75.5 L 81.609375 -70.625 L 130 0 Z M 1.21875 0 L 49.84375 -69.15625 L 71.109375 -45.203125 L 42.03125 0 Z M 81.375 -51.5625 L 60.109375 -75.5 L 86.984375 -118.765625 L 127.5625 -118.765625 Z M 81.375 -51.5625 "/></g></g></g></svg>